<?xml version="1.0" encoding="utf-8"?>
<!-- Generator: Adobe Illustrator 27.5.0, SVG Export Plug-In . SVG Version: 6.00 Build 0)  -->
<svg version="1.1" id="Camada_1" xmlns="http://www.w3.org/2000/svg" xmlns:xlink="http://www.w3.org/1999/xlink" x="0px" y="0px"
	 viewBox="0 0 260.5 61.5" style="enable-background:new 0 0 260.5 61.5;" xml:space="preserve">
<style type="text/css">
	.st0{fill:url(#SVGID_1_);}
	.st1{fill:#FFFFFF;}
	.st2{opacity:0.6;}
	.st3{opacity:0.7;}
</style>
<g>
	<linearGradient id="SVGID_1_" gradientUnits="userSpaceOnUse" x1="130.3943" y1="0.8779" x2="130.3943" y2="60.8779">
		<stop  offset="0" style="stop-color:#FFD400"/>
		<stop  offset="1" style="stop-color:#CD7700"/>
	</linearGradient>
	<path class="st0" d="M31.7,60.9c-16.5,0-30-13.5-30-30s13.5-30,30-30h197.5c16.5,0,30,13.5,30,30s-13.5,30-30,30H31.7z"/>
	<path class="st1" d="M229.1,1.9c16,0,29,13,29,29c0,16-13,29-29,29H31.7c-16,0-29-13-29-29c0-16,13-29,29-29H229.1 M229.1-0.1H31.7
		c-17.1,0-31,13.9-31,31v0c0,17.1,13.9,31,31,31h197.5c17.1,0,31-13.9,31-31v0C260.1,13.8,246.3-0.1,229.1-0.1L229.1-0.1z"/>
</g>
<g>
	<g class="st2">
		<path class="st1" d="M17.6,33.9l4.3-0.3c0.1,0.9,0.3,1.5,0.6,2c0.5,0.7,1.1,1.1,2,1.1c0.6,0,1.1-0.2,1.5-0.6
			c0.4-0.4,0.5-0.8,0.5-1.3c0-0.5-0.2-0.9-0.5-1.3c-0.3-0.4-1.1-0.7-2.3-1.1c-2-0.6-3.4-1.3-4.3-2.2c-0.9-0.9-1.3-2.1-1.3-3.5
			c0-0.9,0.2-1.8,0.7-2.7c0.4-0.8,1.1-1.5,2-2c0.9-0.5,2.1-0.7,3.6-0.7c1.9,0,3.3,0.4,4.3,1.3c1,0.9,1.6,2.3,1.8,4.2l-4.3,0.3
			c-0.1-0.8-0.4-1.4-0.7-1.8s-0.9-0.6-1.5-0.6c-0.5,0-0.9,0.1-1.2,0.4c-0.3,0.3-0.4,0.6-0.4,1c0,0.3,0.1,0.6,0.3,0.8
			c0.2,0.2,0.7,0.5,1.5,0.7c2,0.5,3.4,1.1,4.3,1.6c0.9,0.5,1.5,1.2,1.9,2c0.4,0.8,0.6,1.7,0.6,2.7c0,1.2-0.3,2.3-0.8,3.2
			c-0.5,1-1.2,1.7-2.2,2.3s-2.1,0.8-3.5,0.8c-2.5,0-4.2-0.6-5.2-1.8C18.3,37.2,17.8,35.7,17.6,33.9z"/>
		<path class="st1" d="M33.2,21.6h7.5c1.6,0,2.9,0.5,3.7,1.5c0.8,1,1.2,2.4,1.2,4.2c0,1.8-0.4,3.3-1.3,4.3s-2.3,1.6-4.1,1.6h-2.5
			v6.8h-4.6V21.6z M37.8,29.4h1.1c0.9,0,1.5-0.2,1.8-0.6c0.4-0.4,0.5-0.9,0.5-1.5c0-0.6-0.2-1.1-0.5-1.5c-0.3-0.4-0.9-0.6-1.7-0.6
			h-1.3V29.4z"/>
		<path class="st1" d="M48.2,21.6h4.5v18.3h-4.5V21.6z"/>
		<path class="st1" d="M56.1,21.6h4.2l5.5,10.1V21.6h4.3v18.3h-4.3l-5.5-10.1v10.1h-4.3V21.6z"/>
		<path class="st1" d="M78.9,21.6h13.8v4.5h-4.6v13.8h-4.5V26.1h-4.6V21.6z"/>
		<path class="st1" d="M94.8,21.6h4.5V28h5v-6.4h4.6v18.3h-4.6v-7.4h-5v7.4h-4.5V21.6z"/>
		<path class="st1" d="M111.8,21.6H124v3.9h-7.6v2.9h7.1v3.7h-7.1v3.6h7.8v4.1h-12.4V21.6z"/>
		<path class="st1" d="M132,21.6h4.3l1.6,10.3l2.3-10.3h4.3l2.3,10.2l1.6-10.2h4.3l-3.2,18.3h-4.4l-2.6-11.5l-2.6,11.5h-4.4
			L132,21.6z"/>
		<path class="st1" d="M154,21.6h4.5V28h5v-6.4h4.6v18.3h-4.6v-7.4h-5v7.4H154V21.6z"/>
		<path class="st1" d="M171.1,21.6h12.2v3.9h-7.6v2.9h7.1v3.7h-7.1v3.6h7.8v4.1h-12.4V21.6z"/>
		<path class="st1" d="M185.9,21.6H198v3.9h-7.6v2.9h7.1v3.7h-7.1v3.6h7.8v4.1h-12.4V21.6z"/>
		<path class="st1" d="M200.7,21.6h4.5v13.8h7.1v4.5h-11.6V21.6z"/>
	</g>
	<g>
		<path d="M16.6,32.9l4.3-0.3c0.1,0.9,0.3,1.5,0.6,2c0.5,0.7,1.1,1.1,2,1.1c0.6,0,1.1-0.2,1.5-0.6c0.4-0.4,0.5-0.8,0.5-1.3
			c0-0.5-0.2-0.9-0.5-1.3c-0.3-0.4-1.1-0.7-2.3-1.1c-2-0.6-3.4-1.3-4.3-2.2c-0.9-0.9-1.3-2.1-1.3-3.5c0-0.9,0.2-1.8,0.7-2.7
			c0.4-0.8,1.1-1.5,2-2c0.9-0.5,2.1-0.7,3.6-0.7c1.9,0,3.3,0.4,4.3,1.3c1,0.9,1.6,2.3,1.8,4.2l-4.3,0.3c-0.1-0.8-0.4-1.4-0.7-1.8
			s-0.9-0.6-1.5-0.6c-0.5,0-0.9,0.1-1.2,0.4c-0.3,0.3-0.4,0.6-0.4,1c0,0.3,0.1,0.6,0.3,0.8c0.2,0.2,0.7,0.5,1.5,0.7
			c2,0.5,3.4,1.1,4.3,1.6c0.9,0.5,1.5,1.2,1.9,2c0.4,0.8,0.6,1.7,0.6,2.7c0,1.2-0.3,2.3-0.8,3.2c-0.5,1-1.2,1.7-2.2,2.3
			s-2.1,0.8-3.5,0.8c-2.5,0-4.2-0.6-5.2-1.8C17.3,36.2,16.8,34.7,16.6,32.9z"/>
		<path d="M32.2,20.6h7.5c1.6,0,2.9,0.5,3.7,1.5c0.8,1,1.2,2.4,1.2,4.2c0,1.8-0.4,3.3-1.3,4.3s-2.3,1.6-4.1,1.6h-2.5v6.8h-4.6V20.6z
			 M36.8,28.4h1.1c0.9,0,1.5-0.2,1.8-0.6c0.4-0.4,0.5-0.9,0.5-1.5c0-0.6-0.2-1.1-0.5-1.5c-0.3-0.4-0.9-0.6-1.7-0.6h-1.3V28.4z"/>
		<path d="M47.2,20.6h4.5v18.3h-4.5V20.6z"/>
		<path d="M55.1,20.6h4.2l5.5,10.1V20.6h4.3v18.3h-4.3l-5.5-10.1v10.1h-4.3V20.6z"/>
		<path d="M77.9,20.6h13.8v4.5h-4.6v13.8h-4.5V25.1h-4.6V20.6z"/>
		<path d="M93.8,20.6h4.5V27h5v-6.4h4.6v18.3h-4.6v-7.4h-5v7.4h-4.5V20.6z"/>
		<path d="M110.8,20.6H123v3.9h-7.6v2.9h7.1v3.7h-7.1v3.6h7.8v4.1h-12.4V20.6z"/>
		<path d="M131,20.6h4.3l1.6,10.3l2.3-10.3h4.3l2.3,10.2l1.6-10.2h4.3l-3.2,18.3h-4.4l-2.6-11.5l-2.6,11.5h-4.4L131,20.6z"/>
		<path d="M153,20.6h4.5V27h5v-6.4h4.6v18.3h-4.6v-7.4h-5v7.4H153V20.6z"/>
		<path d="M170.1,20.6h12.2v3.9h-7.6v2.9h7.1v3.7h-7.1v3.6h7.8v4.1h-12.4V20.6z"/>
		<path d="M184.9,20.6H197v3.9h-7.6v2.9h7.1v3.7h-7.1v3.6h7.8v4.1h-12.4V20.6z"/>
		<path d="M199.7,20.6h4.5v13.8h7.1v4.5h-11.6V20.6z"/>
	</g>
	<g class="st3">
		<g>
			<path class="st1" d="M233.3,31.6c-0.5,0.5-1,1-1.5,1.5c-1.8,1.8-3.6,3.6-5.4,5.4c-0.4,0.4-0.9,0.9-1.3,1.3
				c-0.3,0.3-0.7,0.6-1.1,0.7c-1,0.2-2-0.5-2.2-1.6c-0.1-0.6,0.1-1.1,0.5-1.5c0.6-0.7,1.3-1.3,1.9-2c2.4-2.4,4.9-4.9,7.3-7.3
				c0.6-0.6,1.1-1.1,1.7-1.7c0.1-0.1,0.1-0.1,0.2,0c0.6,0.6,1.2,1.2,1.8,1.8c0.7,0.7,1.4,1.4,2.1,2.1c0.8,0.8,1.6,1.6,2.4,2.4
				c1.5,1.5,3,3,4.5,4.5c0.3,0.3,0.6,0.7,0.7,1.1c0.2,0.9-0.3,1.7-1.1,2.1c-0.7,0.3-1.4,0.2-2-0.3c-0.5-0.4-0.9-0.9-1.3-1.3
				c-1.6-1.6-3.2-3.2-4.9-4.9C234.8,33.1,234.1,32.3,233.3,31.6C233.4,31.6,233.3,31.6,233.3,31.6z"/>
		</g>
		<g>
			<path class="st1" d="M233.3,18.2c0.5,0.5,1,1,1.5,1.5c1.8,1.8,3.7,3.7,5.5,5.5c1.3,1.3,2.6,2.6,3.9,3.9c0.3,0.3,0.5,0.6,0.6,1
				c0.2,0.9-0.2,1.7-1.1,2.1c-0.7,0.3-1.4,0.2-2-0.3c-0.7-0.6-1.3-1.3-2-1.9c-2.1-2.1-4.2-4.2-6.3-6.3c-0.1-0.1-0.1-0.1-0.2-0.2
				c-0.1,0.1-0.3,0.2-0.4,0.4c-2.6,2.6-5.3,5.2-7.9,7.9c-0.5,0.5-1,0.7-1.6,0.7c-0.9-0.1-1.6-0.9-1.7-1.8c0-0.6,0.2-1.1,0.6-1.5
				c0.9-0.9,1.8-1.8,2.7-2.7c1.5-1.5,3-3,4.5-4.5c1.2-1.2,2.4-2.3,3.5-3.5C233.2,18.3,233.3,18.2,233.3,18.2z"/>
		</g>
	</g>
	<g>
		<g>
			<path d="M233.3,30.6c-0.5,0.5-1,1-1.5,1.5c-1.8,1.8-3.6,3.6-5.4,5.4c-0.4,0.4-0.9,0.9-1.3,1.3c-0.3,0.3-0.7,0.6-1.1,0.7
				c-1,0.2-2-0.5-2.2-1.6c-0.1-0.6,0.1-1.1,0.5-1.5c0.6-0.7,1.3-1.3,1.9-2c2.4-2.4,4.9-4.9,7.3-7.3c0.6-0.6,1.1-1.1,1.7-1.7
				c0.1-0.1,0.1-0.1,0.2,0c0.6,0.6,1.2,1.2,1.8,1.8c0.7,0.7,1.4,1.4,2.1,2.1c0.8,0.8,1.6,1.6,2.4,2.4c1.5,1.5,3,3,4.5,4.5
				c0.3,0.3,0.6,0.7,0.7,1.1c0.2,0.9-0.3,1.7-1.1,2.1c-0.7,0.3-1.4,0.2-2-0.3c-0.5-0.4-0.9-0.9-1.3-1.3c-1.6-1.6-3.2-3.2-4.9-4.9
				C234.8,32.1,234.1,31.3,233.3,30.6C233.4,30.6,233.3,30.6,233.3,30.6z"/>
		</g>
		<g>
			<path d="M233.3,17.2c0.5,0.5,1,1,1.5,1.5c1.8,1.8,3.7,3.7,5.5,5.5c1.3,1.3,2.6,2.6,3.9,3.9c0.3,0.3,0.5,0.6,0.6,1
				c0.2,0.9-0.2,1.7-1.1,2.1c-0.7,0.3-1.4,0.2-2-0.3c-0.7-0.6-1.3-1.3-2-1.9c-2.1-2.1-4.2-4.2-6.3-6.3c-0.1-0.1-0.1-0.1-0.2-0.2
				c-0.1,0.1-0.3,0.2-0.4,0.4c-2.6,2.6-5.3,5.2-7.9,7.9c-0.5,0.5-1,0.7-1.6,0.7c-0.9-0.1-1.6-0.9-1.7-1.8c0-0.6,0.2-1.1,0.6-1.5
				c0.9-0.9,1.8-1.8,2.7-2.7c1.5-1.5,3-3,4.5-4.5c1.2-1.2,2.4-2.3,3.5-3.5C233.2,17.3,233.3,17.2,233.3,17.2z"/>
		</g>
	</g>
</g>
</svg>
